<svg width="147" height="38" viewBox="0 0 147 38" fill="none" xmlns="http://www.w3.org/2000/svg">
<path d="M14.8868 3.71158C15.6304 2.60939 16.8731 1.94873 18.2027 1.94873H29.0933C32.2981 1.94873 34.2016 5.52918 32.4092 8.18588L22.7048 22.5697C21.9611 23.6719 20.7185 24.3326 19.3889 24.3326H8.49829C5.2935 24.3326 3.39 20.7521 5.1824 18.0954L14.8868 3.71158Z" fill="#FF4C1C"/>
<path d="M19.1022 26.4071C17.7726 26.4071 16.5299 27.0678 15.7863 28.17L15.3344 28.8398C13.542 31.4965 15.4455 35.0769 18.6503 35.0769H30.5153C31.8449 35.0769 33.0875 34.4163 33.8312 33.3141L43.5356 18.9302C45.328 16.2735 43.4245 12.6931 40.2197 12.6931H33.9904C32.6608 12.6931 31.4182 13.3537 30.6745 14.4559L23.8007 24.6442C23.0571 25.7464 21.8144 26.4071 20.4848 26.4071H19.1022Z" fill="#FFC529"/>
</svg>
